<svg height="496pt" viewBox="-24 0 496 496" width="496pt" fill="#6433cd" xmlns="http://www.w3.org/2000/svg"><path d="m72 240h32v-16h-32c-30.878906 0-56-25.128906-56-56s25.121094-56 56-56c7.28125 0 14.335938 1.367188 20.992188 4.070312l6.015624-14.832031c-8.566406-3.46875-17.65625-5.238281-27.007812-5.238281 0-35.289062 28.710938-64 64-64 20.175781 0 38.921875 9.535156 51.007812 25.542969-3.214843 6.449219-5.878906 13.265625-7.726562 20.464843l15.496094 3.984376c10-38.847657 45.046875-65.992188 85.222656-65.992188 48.519531 0 88 39.480469 88 88v8h8c30.878906 0 56 25.128906 56 56s-25.121094 56-56 56h-48v16h48c39.695312 0 72-32.296875 72-72 0-37.097656-28.191406-67.71875-64.273438-71.585938-3.894531-53.820312-48.933593-96.414062-103.726562-96.414062-34.113281 0-65.03125 16.617188-84.160156 42.976562-15.085938-17.03125-36.742188-26.976562-59.839844-26.976562-44.113281 0-80 35.886719-80 80 0 .617188.089844 1.214844.105469 1.832031-32.066407 7.265625-56.105469 35.9375-56.105469 70.167969 0 39.703125 32.304688 72 72 72zm0 0"/><path d="m48 168c0-13.230469 10.769531-24 24-24v-16c-22.054688 0-40 17.945312-40 40zm0 0"/><path d="m416 313.464844-35.441406 7.183594-1.191406 4.953124c-3.886719 16.117188-10.261719 31.476563-18.933594 45.65625l-2.664063 4.34375 19.992188 30.167969-36 36-30.160157-19.992187-4.34375 2.65625c-14.203124 8.6875-29.5625 15.054687-45.664062 18.933594l-4.953125 1.183593-7.175781 35.449219h-50.921875l-7.183594-35.449219-4.960937-1.183593c-16.09375-3.878907-31.460938-10.246094-45.664063-18.933594l-4.34375-2.65625-30.160156 19.992187-36-36 19.992187-30.167969-2.664062-4.34375c-8.671875-14.179687-15.039063-29.539062-18.933594-45.65625l-1.191406-4.953124-35.433594-7.183594v-25.464844h-16v38.535156l38.351562 7.785156c3.894532 14.289063 9.578126 28 16.953126 40.863282l-21.632813 32.640625 54.503906 54.496093 32.640625-21.632812c12.886719 7.375 26.589844 13.066406 40.871094 16.945312l7.777344 38.367188h77.078125l7.777343-38.359375c14.28125-3.878906 27.984376-9.570313 40.871094-16.945313l32.640625 21.632813 54.503907-54.496094-21.632813-32.640625c7.367187-12.863281 13.058594-26.574218 16.953125-40.863281l38.34375-7.792969v-38.535156h-16zm0 0"/><path d="m80 288c0 79.398438 64.601562 144 144 144s144-64.601562 144-144h-16c0 70.574219-57.425781 128-128 128s-128-57.425781-128-128zm0 0"/><path d="m252.632812 96.742188c-22.257812 10.335937-36.632812 32.554687-36.632812 56.59375 0 22.328124 12.398438 43.089843 32 54.207031v128.457031c0 17.648438 14.351562 32 32 32s32-14.351562 32-32v-128.457031c19.601562-11.128907 32-31.878907 32-54.207031 0-24.039063-14.375-46.257813-36.632812-56.59375l-11.367188-5.277344v46.773437l-32 10.664063v-57.4375zm59.367188 53.027343v-31.121093c9.992188 8.742187 16 21.34375 16 34.6875 0 17.832031-10.742188 34.359374-27.367188 42.078124l-4.632812 2.152344v138.433594c0 8.824219-7.175781 16-16 16s-16-7.175781-16-16v-138.433594l-4.632812-2.160156c-16.625-7.710938-27.367188-24.238281-27.367188-42.070312 0-13.34375 6.007812-25.945313 16-34.6875v52.457031zm0 0"/><path d="m120 219.054688v44.945312h16v82.425781l24 36 24-36v-82.425781h16v-44.945312l-16-8v-6.109376l16-8v-52.945312c0-22.054688-17.945312-40-40-40s-40 17.945312-40 40v52.945312l16 8v6.109376zm48 122.519531-8 12-8-12v-77.574219h16zm-32-197.574219c0-13.230469 10.769531-24 24-24s24 10.769531 24 24v43.054688l-16 8v12.945312h-16v-12.945312l-16-8zm9.886719 80h28.21875l9.894531 4.945312v19.054688h-48v-19.054688zm0 0"/></svg>